<svg xmlns="http://www.w3.org/2000/svg" width="48" height="48" version="1.0" viewBox="0 0 36 36"><path d="M25.735 1.045a1.126 1.126 0 0 0-.593.185c-.148.1-.4.46-.487.699a2.358 2.358 0 0 1-.075.187 1.47 1.47 0 0 1-.292-.05c-.429-.101-1.124-.087-1.527.028l-.31.087-.043-.17a2.106 2.106 0 0 0-.375-.673c-.18-.195-.684-.332-.998-.274-.403.076-.904.335-1.113.576-.248.281-.374.703-.313 1.03.01.069.076.217.144.325l.119.201-.112-.032a3.511 3.511 0 0 0-.4-.047c-.252-.018-.31-.01-.468.065-.252.115-.446.35-.533.638-.014.046-.115.06-.627.079-.716.029-1.156.09-1.808.263-1.21.317-2.19.821-3.3 1.704-.928.738-1.843 1.887-2.34 2.946-.57 1.207-.793 2.208-.79 3.559 0 .94.148 1.862.437 2.701.154.454.594 1.347.86 1.747.436.656 1.067 1.362 1.809 2.024l.263.234-.606.63-1.037 1.085-.432.457H9.167c-1.711 0-2.02.022-2.647.166-1.12.267-1.794.59-2.443 1.185a4.426 4.426 0 0 0-1.21 1.87c-.252.745-.274 1.023-.274 3.508 0 1.844.008 2.15.054 2.24.033.061.076.108.101.108.022.004 1.358.004 2.961 0h2.918l.1-.108.098-.111v-6.858l.875-.011c.864-.008.875-.008.962.072.047.047.187.162.31.263.122.097.58.464 1.012.814.432.35.846.673.918.72a.482.482 0 0 1 .137.108c0 .022-.14.252-.612 1.023-.415.67-.45.757-.45 1.027 0 .295.068.403.5.77a65.638 65.638 0 0 1 1.895 1.755c.227.22.45.4.558.45l.18.086h2.993c3.264 0 3.206.004 3.483-.205.072-.058.501-.457.951-.893.454-.436 1.013-.973 1.247-1.189l.421-.396v-.234c0-.396.029-.335-.9-1.855l-.245-.396.097-.083c.05-.044.284-.23.522-.415.58-.45 1.135-.89 1.48-1.174l.289-.238.879-.01c.479-.008.929-.004.997.01l.126.022-.007 3.45c-.003 2.504.007 3.477.036 3.53.025.044.069.076.105.076.032 0 1.422 0 3.083.004h3.022l.094-.094.093-.09v-2.298c-.003-2.028-.01-2.337-.065-2.654-.223-1.254-.893-2.338-1.88-3.037-.601-.425-1.163-.648-2.053-.81-.41-.076-.53-.08-2.442-.08h-2.01l-.57-.576c-.795-.81-1.4-1.448-1.465-1.552-.058-.083-.054-.09.043-.17.598-.464 1.423-1.365 1.859-2.024.53-.8 1.044-1.981 1.286-2.954.1-.407.183-1.008.209-1.505l.021-.425.238-.159c.429-.288.663-.565.818-.972.165-.436.032-.944-.335-1.279-.108-.1-.217-.18-.238-.18-.022 0 .003-.043.054-.1.14-.148.472-.714.583-.995.101-.248.274-.879.274-.99 0-.047.043-.058.263-.058.317 0 .594-.123.8-.35.252-.277.288-.407.288-1.037 0-.526-.007-.569-.094-.756-.13-.274-.27-.429-.482-.526a1.057 1.057 0 0 0-.674-.054l-.133.032-.076-.176c-.09-.213-.537-.81-.785-1.052l-.177-.176.126-.245c.17-.328.191-.57.08-.876-.238-.659-.962-1.091-1.604-1.067zm-2.223 3.281c.199 0 .405.018.56.052.144.032.41.13.594.216.27.126.385.205.58.4.267.27.472.587.59.904.09.248.13.994.066 1.253-.148.591-.624 1.207-1.12 1.456-.444.22-.663.27-1.19.27-.457 0-.5-.007-.763-.112-.987-.4-1.624-1.433-1.505-2.453.104-.915.77-1.69 1.674-1.938.125-.032.316-.048.514-.048zm-6.889 1.69s0 .084.004.188c.003.353.255.756.58.937.108.057.313.118.518.155.339.06 1.063.082 1.207.035.068-.021.08-.007.1.13.044.278.242.868.386 1.15.08.147.263.42.41.608.148.184.27.346.27.356 0 .011-.057.058-.122.101-.245.159-.49.623-.49.926 0 .573.555 1.297 1.178 1.534.278.109.656.116.868.022.083-.04.159-.061.17-.05.036.036-.058.72-.126.918a3.189 3.189 0 0 1-.602.984c-.248.266-.601.475-1.134.666-.645.23-.894.547-.847 1.073.022.26.155.49.364.634.533.368 1.02.324 1.912-.173 1.344-.745 2.133-2.013 2.363-3.793.072-.565-.036-.89-.363-1.073-.137-.076-.206-.09-.454-.086-.159.003-.324.025-.368.046-.097.05-.097.036-.007-.14a.699.699 0 0 0 .072-.195c0-.043.025-.04.137.015.23.112.587.155 1.138.137.422-.015.555-.033.778-.112.148-.05.274-.086.281-.083.004.007.025.234.047.505.08.936-.108 2.1-.479 3.004-.67 1.635-1.844 2.914-3.325 3.627a6.842 6.842 0 0 1-2.24.644c-.59.072-.904.072-1.516.004a7.078 7.078 0 0 1-2.457-.764c-1.336-.698-2.478-1.995-3.044-3.461a7.75 7.75 0 0 1-.381-1.538c-.058-.468-.022-1.33.075-1.79.353-1.675 1.556-3.34 3.09-4.272.548-.332 1.049-.555 1.79-.793.12-.04.217-.072.217-.075zm.238 1.87a1.602 1.602 0 0 0-.393.069.833.833 0 0 0-.583.8c0 .11-.011.345-.022.525l-.025.32-.191.102c-.292.15-.667.533-.807.82-.335.692-.18 1.478.407 2.065.32.32.483.407 1.304.684.612.209.648.227.66.32.013.116-.084.166-.512.253l-.285.061-.173-.148c-.26-.22-.392-.263-.76-.255-.173 0-.356.021-.41.04a.31.31 0 0 1-.105.028c-.007-.007-.065-.148-.137-.317-.176-.429-.238-.753-.26-1.318-.02-.48-.057-.652-.194-.88-.119-.197-.273-.327-.464-.38-.324-.095-.638 0-.88.266-.204.227-.226.335-.226 1.105 0 .757.058 1.117.277 1.744.357 1.02.85 1.491 1.351 1.282.068-.029.133-.054.137-.054.003 0 .075.087.155.195.277.367.702.515 1.015.353l.127-.062.01.645c.015.717.04.821.263 1.009.278.234.548.284.897.165.306-.104.48-.245.602-.497.093-.19.1-.241.115-.735l.01-.525.12-.022c.165-.033.623-.339.781-.522.515-.602.638-1.495.296-2.176-.13-.256-.523-.627-.81-.77a5.645 5.645 0 0 0-.628-.228c-.734-.209-1.073-.363-1.012-.46.05-.084.234-.152.494-.188l.26-.036.19.18c.104.097.234.198.285.216.313.119.886-.072 1.113-.37.223-.293.255-.685.09-1.128-.148-.404-.602-.699-1.005-.652l-.177.021-.01-.5c-.011-.486-.015-.5-.12-.656-.15-.216-.493-.389-.77-.389Zm15.056.793c-1.693.003-1.837.007-2.01.072-.486.173-.72.518-.688 1.005.022.302.13.511.346.677.273.209.284.209 2.312.209h1.855l.191-.087c.461-.209.68-.71.53-1.214-.072-.245-.231-.421-.494-.55l-.22-.112zM7.798 13.18l-1.98.004c-1.089.003-2.029.014-2.09.028-.162.04-.274.105-.425.253a.807.807 0 0 0-.281.504c-.09.418.198.933.605 1.084.18.065.288.072 2.093.072 1.837.004 1.909 0 2.1-.068.432-.162.68-.512.68-.948 0-.407-.165-.673-.522-.843zm22.242.767c-1.04-.003-1.905 0-1.927.007-.018.008-.08.022-.133.033-.123.029-.335.209-.443.385-.101.155-.17.5-.14.681.057.35.251.612.568.76l.22.105 1.744.014c1.631.014 1.757.01 1.963-.05.317-.098.5-.25.63-.512.252-.504.072-1.077-.418-1.326l-.173-.09Zm-15.387 6.113c.003 0 .093.043.198.093.45.231 1.145.418 2.093.566l.284.043-.32.18c-.177.101-.447.242-.598.317-.375.184-.44.267-.415.548.018.223.152.554.807 1.999.429.94.407.825.238 1.264-.162.421-.757 1.88-.9 2.212a9.04 9.04 0 0 0-.213.54c-.061.176-.126.32-.14.317-.047-.01-1.214-1.063-1.232-1.113-.008-.025.15-.367.353-.76.205-.393.428-.821.497-.958.212-.422.19-.814-.065-1.11-.12-.14-.692-.583-1.61-1.239a16.012 16.012 0 0 1-.84-.652c-.007-.007.245-.306.562-.67.555-.637.667-.77 1.092-1.318.108-.14.201-.256.209-.26zm6.818 0c.011 0 .069.068.126.151.162.23 1.142 1.408 1.452 1.75.151.166.274.321.274.346 0 .05-.274.281-.649.544a52.06 52.06 0 0 0-.648.469c-.216.162-.53.389-.695.504-.469.331-.656.605-.656.95 0 .231.01.26.468 1.03.213.357.461.779.555.937l.17.285-.12.112c-.064.06-.33.306-.587.547l-.471.436-.076-.184c-.043-.104-.191-.44-.328-.745-.63-1.405-.745-1.664-.893-2.025a3.764 3.764 0 0 1-.159-.432c0-.025.072-.19.159-.37.086-.177.241-.52.346-.757.104-.238.288-.645.407-.9.27-.595.313-.714.313-.898 0-.277-.08-.35-.75-.68a8.81 8.81 0 0 0-.709-.328c-.162-.04-.061-.083.324-.13.685-.08 1.56-.313 1.96-.522a2.78 2.78 0 0 1 .187-.09zm3.868 4.778a.931.931 0 0 0-.295.027c-.263.065-.46.212-.558.414-.08.166-.08.17-.09 2.29l-.01 2.126.107.227c.094.187.14.238.281.31.094.046.238.097.324.111.332.054.768-.144.915-.421l.083-.155-.007-2.168c-.007-2.079-.01-2.172-.076-2.306a.82.82 0 0 0-.674-.455Zm6.556 7.108-13.525.004c-11.843 0-13.543.007-13.677.054-.216.08-.454.302-.554.526-.22.497.003 1.062.508 1.304l.162.075h27.05l.177-.086a1.03 1.03 0 0 0 .587-.865c.04-.414-.14-.734-.504-.907zM.21 35.12a.598.598 0 0 1-.112.022c-.09.014-.097.029-.097.195 0 .172.004.176.108.176.108 0 .108-.004.108-.198 0-.108-.004-.195-.007-.195z" style="stroke-width:.0360194"/></svg>